<?xml version="1.0" standalone="no"?> <!DOCTYPE svg PUBLIC "-//W3C//DTD SVG 1.0//EN" "http://www.w3.org/TR/2001/REC-SVG-20010904/DTD/svg10.dtd" > <svg xmlns="http://www.w3.org/2000/svg" width="100%" height="100%">
<defs >
<font id="helveticaneuecyrbold" horiz-adv-x="978" ><font-face
    font-family="HelveticaNeueCyr"
    units-per-em="2048"
    panose-1="2 0 8 3 5 0 0 2 0 4"
    ascent="1462"
    descent="-405"
    alphabetic="0" />
<missing-glyph horiz-adv-x="2048" />
<glyph unicode=" " glyph-name="space" horiz-adv-x="569" />
<glyph unicode="!" glyph-name="exclam" horiz-adv-x="569" d="M436 1458V1069L356 444H211L131 1065V1458H436ZM442 313V0H125V313H442Z" />
<glyph unicode="&quot;" glyph-name="quotedbl" horiz-adv-x="948" d="M365 821H223L184 1421H401L365 821ZM725 821H586L547 1421H764L725 821Z" />
<glyph unicode="#" glyph-name="numbersign" horiz-adv-x="1138" d="M322 0H113L188 393H6V565H221L274 854H94V1028H307L383 1421H592L516 1028H739L815 1421H1024L948 1028H1130V854H915L862 565H1042V393H829L754 0H545L621 393H395L322 0ZM653 565L707 854H483L430
565H653Z" />
<glyph unicode="$" glyph-name="dollar" horiz-adv-x="1138" d="M623 1616V1460Q842 1455 968 1350T1094 1063V1034H821V1049Q821 1145 771 1193T623 1253V858L635 856Q717 843 784 824T919 770T1034 690T1110 575T1139 418Q1139 217 997 93T623 -35V-207H512V-35Q400
-33 306 -2T140 87T28 237T-12 444L-10 457H281V438Q281 206 512 186V623Q432 637 369 654T241 704T132 779T61 888T33 1036Q33 1141 71 1221T177 1350T328 1426T512 1460V1616H623ZM512 883V1251Q414 1247 359 1198T303 1069Q303 1042 310 1019T326 980T354 950T386
927T427 909T467 896T512 883ZM623 598V184Q726 187 788 245T850 395Q850 476 795 525T623 598Z" />
<glyph unicode="%" glyph-name="percent" horiz-adv-x="2048" d="M1509 1475L705 -55H522L1329 1475H1509ZM504 1446Q670 1446 758 1347T846 1059Q846 860 759 755T506 649Q339 649 250 752T160 1049Q160 1239 250 1342T504 1446ZM502 1296Q433 1296 401 1234T369
1038Q369 909 399 853T500 797Q572 797 603 858T635 1059Q635 1090 634 1110T630 1162T617 1214T594 1255T557 1286T502 1296ZM1556 768Q1722 768 1810 669T1898 381Q1898 182 1811 77T1559 -29Q1391 -29 1302 74T1212 371Q1212 561 1302 664T1556 768ZM1554 618Q1485
618 1453 556T1421 360Q1421 231 1451 175T1552 119Q1624 119 1656 180T1688 381Q1688 411 1687 432T1682 484T1669 536T1646 577T1609 607T1554 618Z" />
<glyph unicode="&amp;" glyph-name="ampersand" horiz-adv-x="1402" d="M1272 705Q1247 488 1133 346L1430 0H1075L954 143Q877 60 770 15T547 -31Q418 -31 311 18T137 167T70 399Q70 546 162 657T399 831Q326 919 294 990T262 1135Q262 1283 373 1380T655 1477Q819
1477 926 1379T1034 1130Q1034 897 780 762L969 532Q1005 597 1022 705H1272ZM637 934Q718 983 753 1030T788 1137Q788 1195 751 1233T655 1272T559 1236T520 1145Q520 1065 637 934ZM549 643Q447 590 400 534T352 408Q352 326 412 269T559 211Q689 211 801 338L549
643Z" />
<glyph unicode="&apos;" glyph-name="quotesingle" horiz-adv-x="569" d="M352 821H217L174 1421H395L352 821Z" />
<glyph unicode="(" glyph-name="parenleft" horiz-adv-x="606" d="M618 1481Q499 1242 445 1025T391 549Q391 97 623 -365H377Q249 -172 179 67T109 543Q109 788 178 1039T377 1481H618Z" />
<glyph unicode=")" glyph-name="parenright" horiz-adv-x="606" d="M-8 1481H233Q366 1277 436 1044T506 569Q506 337 435 69T238 -365H-6Q116 -116 168 96T221 573Q221 810 163 1044T-8 1481Z" />
<glyph unicode="*" glyph-name="asterisk" horiz-adv-x="833" d="M791 1155L549 1075L698 874L563 774L414 985L268 774L131 874L283 1075L45 1155L98 1313L336 1223L330 1479H502L494 1223L731 1313L791 1155Z" />
<glyph unicode="+" glyph-name="plus" horiz-adv-x="1228" d="M504 0V428H82V635H504V1063H725V635H1147V428H725V0H504Z" />
<glyph unicode="," glyph-name="comma" horiz-adv-x="569" d="M446 319V59Q446 -119 368 -216T123 -340V-197Q195 -175 229 -129T268 0H123V319H446Z" />
<glyph unicode="-" glyph-name="hyphen" horiz-adv-x="833" d="M725 688V428H109V688H725Z" />
<glyph unicode="." glyph-name="period" horiz-adv-x="569" d="M446 319V0H123V319H446Z" />
<glyph unicode="/" glyph-name="slash" horiz-adv-x="759" d="M532 1493H782L225 -35H-27L532 1493Z" />
<glyph unicode="0" glyph-name="zero" horiz-adv-x="1138" d="M571 1442Q671 1442 752 1412T890 1326T988 1202T1052 1047T1085 879T1096 707Q1096 366 957 171T573 -25Q325 -25 184 169T43 707Q43 814 58 913T112 1111T209 1281T360 1397T571 1442ZM569 1202Q530
1202 498 1190T443 1158T401 1107T371 1046T351 974T339 901T333 824T331 755T330 692Q330 448 389 330T571 211Q809 211 809 707Q809 964 751 1083T569 1202Z" />
<glyph unicode="1" glyph-name="one" horiz-adv-x="1138" d="M811 1434V0H502V932H154V1147H190Q515 1147 571 1434H811Z" />
<glyph unicode="2" glyph-name="two" horiz-adv-x="1138" d="M1081 252V0H31Q32 70 44 131T74 239T126 333T190 413T273 488T365 558T471 631Q487 642 527 668T588 709T645 750T699 799T740 852T770 915T780 985Q780 1079 724 1135T575 1192Q462 1192 405 1116T342
881H63V911Q63 1156 204 1300T586 1444Q802 1444 937 1323T1073 1006Q1073 938 1058 881T1019 782T953 697T873 625T776 555Q756 541 701 505T613 446T537 389T459 321T403 252H1081Z" />
<glyph unicode="3" glyph-name="three" horiz-adv-x="1138" d="M66 965Q74 1188 204 1316T561 1444Q773 1444 905 1335T1038 1051Q1038 946 984 870T838 768Q957 739 1024 652T1092 438Q1092 234 943 104T559 -27Q315 -27 172 108T29 473V494H309Q311 361 373
290T553 219Q660 219 725 279T791 436Q791 548 718 598T530 649Q487 649 459 647V852Q481 850 508 850Q758 850 758 1030Q758 1112 704 1161T559 1210Q457 1210 401 1147T342 965H66Z" />
<glyph unicode="4" glyph-name="four" horiz-adv-x="1138" d="M1104 571V330H911V0H641V330H27V598L649 1438H911V571H1104ZM641 571V1104L260 571H641Z" />
<glyph unicode="5" glyph-name="five" horiz-adv-x="1138" d="M1008 1421V1174H420L365 862Q465 963 629 963Q835 963 960 834T1085 494Q1085 268 933 123T545 -23Q320 -23 178 93T23 424H309Q319 330 384 272T545 213Q654 213 723 289T793 487T725 680T543 752Q470
752 420 724T328 633H68L207 1421H1008Z" />
<glyph unicode="6" glyph-name="six" horiz-adv-x="1138" d="M1073 1061H797Q756 1223 604 1223Q365 1223 332 797Q450 958 651 958Q848 958 974 826T1100 485Q1101 263 957 119T590 -25Q335 -25 192 163T49 686Q49 1039 198 1241T608 1444Q802 1444 924 1344T1073
1061ZM584 741Q486 741 422 666T358 475Q358 358 422 285T586 211T751 286T817 477T751 666T584 741Z" />
<glyph unicode="7" glyph-name="seven" horiz-adv-x="1138" d="M1055 1421V1182Q816 920 709 645T582 0H281Q281 167 347 390T525 824T760 1159H76V1421H1055Z" />
<glyph unicode="8" glyph-name="eight" horiz-adv-x="1138" d="M299 762Q198 796 143 873T88 1059Q88 1226 225 1336T569 1446Q778 1446 914 1336T1051 1059Q1051 949 997 873T842 762Q968 731 1039 639T1110 412Q1110 215 962 95T569 -25Q326 -25 179 95T31 412Q31
546 102 638T299 762ZM569 1227Q472 1227 413 1176T354 1040Q354 953 413 901T571 848Q671 848 729 900T788 1040Q788 1128 730 1177T569 1227ZM563 657Q457 657 390 594T322 430Q322 326 390 262T569 197Q682 197 750 260T819 428Q819 531 749 594T563 657Z" />
<glyph unicode="9" glyph-name="nine" horiz-adv-x="1138" d="M59 360H336Q369 197 532 197Q576 197 613 212T675 252T721 314T753 386T775 469T789 550T797 627Q737 541 665 501T489 461Q291 461 163 594T35 934Q35 1154 182 1300T551 1446Q667 1446 759 1406T912
1298T1011 1140T1068 951T1085 748Q1085 638 1069 534T1011 327T909 147T750 23T532 -25Q336 -25 209 79T59 360ZM545 1206Q448 1206 384 1131T319 944Q319 830 383 756T547 682Q645 682 709 756T774 942Q774 1056 709 1131T545 1206Z" />
<glyph unicode=":" glyph-name="colon" horiz-adv-x="569" d="M446 1042V723H123V1042H446ZM446 319V0H123V319H446Z" />
<glyph unicode=";" glyph-name="semicolon" horiz-adv-x="569" d="M449 319V59Q449 -119 370 -216T125 -340V-197Q197 -175 231 -129T270 0H125V319H449ZM444 1042V723H121V1042H444Z" />
<glyph unicode="&lt;" glyph-name="less" horiz-adv-x="1228" d="M82 424V639L1147 1049V799L406 532L1147 266V12L82 424Z" />
<glyph unicode="=" glyph-name="equal" horiz-adv-x="1228" d="M82 631V860H1147V631H82ZM82 203V432H1147V203H82Z" />
<glyph unicode="&gt;" glyph-name="greater" horiz-adv-x="1228" d="M1147 424L82 12V266L823 532L82 799V1049L1147 639V424Z" />
<glyph unicode="?" glyph-name="question" horiz-adv-x="1138" d="M63 987Q78 1222 209 1355T580 1489Q798 1489 931 1374T1065 1069Q1065 951 1005 865T834 702Q743 640 717 593T690 438H418Q418 498 419 532T428 608T451 681T492 745T559 815Q573 827 610 857T665
903T707 948T742 1008T752 1075Q752 1149 704 1194T575 1239Q371 1239 362 987H63ZM711 313V0H393V313H711Z" />
<glyph unicode="@" glyph-name="at" horiz-adv-x="1638" d="M1421 266L1481 184Q1322 68 1174 17T854 -35Q511 -35 293 168Q181 270 121 411T61 709Q61 872 125 1017T298 1267T560 1432T885 1493Q1085 1493 1243 1415T1489 1197T1577 879Q1577 739 1519 614T1362
415T1155 340Q1075 340 1028 380T981 489Q981 514 985 530Q940 442 869 391T702 340Q578 340 501 427T424 653Q424 751 457 843T547 1001T679 1108T836 1149Q1004 1149 1067 1010L1096 1116H1270L1137 659Q1116 588 1116 549Q1116 511 1138 489T1200 467Q1265 467
1326 527T1424 686T1462 889Q1462 1110 1303 1248T887 1386Q736 1386 604 1334T378 1192T230 975T176 702Q176 519 263 375T506 151T860 70Q1012 70 1146 116T1421 266ZM1004 889Q1004 948 971 986T879 1024Q823 1024 774 983T695 880T647 756T629 643Q629 560
663 514T758 467Q813 467 862 515T940 633T987 771T1004 889Z" />
<glyph unicode="A" glyph-name="A" horiz-adv-x="1402" d="M866 1460L1421 0H1085L971 326H428L309 0H-18L537 1460H866ZM893 559L700 1102L506 559H893Z" />
<glyph unicode="B" glyph-name="B" horiz-adv-x="1441" d="M139 1458H829Q928 1458 1010 1437T1157 1372T1258 1258T1294 1092Q1294 988 1241 910T1096 791Q1217 756 1289 668T1362 434Q1362 296 1295 197T1118 49T868 0H139V1458ZM451 1210V868H741Q791 868 829
874T904 897T962 949T983 1038Q983 1081 969 1112T934 1162T879 1192T814 1206T741 1210H451ZM451 651V254H772Q818 254 853 258T926 274T987 308T1026 366T1042 453Q1042 504 1026 541T984 599T918 632T842 647T756 651H451Z" />
<glyph unicode="C" glyph-name="C" horiz-adv-x="1517" d="M1444 563Q1418 288 1251 127T791 -35Q473 -35 280 175T86 731Q86 890 136 1029T276 1271T503 1433T803 1493Q1064 1493 1239 1346T1434 971H1120Q1095 1091 1010 1158T797 1225Q715 1225 649 1197T538
1121T464 1009T421 875T408 729Q408 503 512 370T793 236Q937 236 1021 319T1126 563H1444Z" />
<glyph unicode="D" glyph-name="D" horiz-adv-x="1517" d="M143 0V1458H733Q1073 1458 1256 1270T1440 729Q1440 378 1257 189T733 0H143ZM461 266H694Q909 266 1013 385T1118 729Q1118 953 1013 1072T694 1192H461V266Z" />
<glyph unicode="E" glyph-name="E" horiz-adv-x="1327" d="M1235 1458V1196H459V879H1171V627H459V268H1249V0H141V1458H1235Z" />
<glyph unicode="F" glyph-name="F" horiz-adv-x="1214" d="M1169 1458V1190H461V852H1077V598H461V0H141V1458H1169Z" />
<glyph unicode="G" glyph-name="G" horiz-adv-x="1554" d="M1440 788V0H1237L1206 166Q1122 63 1016 14T768 -35Q567 -35 411 60T169 328T82 723Q82 890 135 1032T282 1275T509 1432T799 1489Q1048 1489 1220 1349T1421 979H1112Q1089 1094 1006 1157T795 1221Q612
1221 508 1089T403 723Q403 485 509 353T805 221Q956 221 1051 312T1153 551H827V788H1440Z" />
<glyph unicode="H" glyph-name="H" horiz-adv-x="1517" d="M1376 1458V0H1057V629H461V0H141V1458H461V909H1057V1458H1376Z" />
<glyph unicode="I" glyph-name="I" horiz-adv-x="604" d="M463 1458V0H141V1458H463Z" />
<glyph unicode="J" glyph-name="J" horiz-adv-x="1138" d="M1020 1458V457Q1020 215 900 90T541 -35Q310 -35 182 85T53 449V545H348V500Q348 466 348 449T351 400T358 352T371 312T392 275T424 248T470 229T530 223Q576 223 609 237T659 271T686 326T698 391T700
467V1458H1020Z" />
<glyph unicode="K" glyph-name="K" horiz-adv-x="1478" d="M1438 1458L866 883L1491 0H1090L647 655L461 471V0H145V1458H461V852L1034 1458H1438Z" />
<glyph unicode="L" glyph-name="L" horiz-adv-x="1214" d="M1174 274V0H141V1458H461V274H1174Z" />
<glyph unicode="M" glyph-name="M" horiz-adv-x="1857" d="M141 0V1458H598L938 457L1270 1458H1716V0H1415V1036L1057 0H809L446 1026V0H141Z" />
<glyph unicode="N" glyph-name="N" horiz-adv-x="1517" d="M141 0V1458H467L1067 481V1458H1374V0H1055L451 979V0H141Z" />
<glyph unicode="O" glyph-name="O" horiz-adv-x="1593" d="M801 1493Q1012 1493 1174 1398T1426 1128T1516 727Q1516 502 1427 329T1174 60T799 -35Q639 -35 505 20T276 174T130 415T78 727Q78 1074 276 1283T801 1493ZM797 1231Q616 1231 509 1096T401 733Q401
499 508 365T801 229Q982 229 1087 364T1192 733Q1192 963 1086 1097T797 1231Z" />
<glyph unicode="P" glyph-name="P" horiz-adv-x="1366" d="M143 1458H772Q1018 1458 1162 1340T1307 989Q1307 835 1238 729T1053 573T788 524H461V0H143V1458ZM461 1196V776H745Q863 776 929 823T995 985Q995 1096 929 1146T748 1196H461Z" />
<glyph unicode="Q" glyph-name="Q" horiz-adv-x="1593" d="M1503 16L1354 -145L1139 49Q1006 -35 786 -35Q577 -35 417 59T167 326T78 725Q78 948 169 1122T425 1394T801 1491Q1007 1491 1169 1395T1421 1126T1511 733Q1511 562 1460 419T1315 188L1503 16ZM1094
393Q1192 511 1192 731Q1192 960 1086 1093T795 1227Q614 1227 507 1092T399 727Q399 497 506 359T793 221Q867 221 932 250L786 377L936 537L1094 393Z" />
<glyph unicode="R" glyph-name="R" horiz-adv-x="1478" d="M154 1458H879Q982 1458 1069 1434T1224 1362T1331 1232T1370 1044Q1370 917 1309 822T1139 686Q1327 648 1354 346Q1355 335 1358 282T1365 198T1376 121T1395 45T1423 0H1092Q1075 33 1067 82T1053
212T1047 299Q1031 453 971 512T756 571H471V0H154V1458ZM471 1206V803H774Q838 803 883 810T970 838T1035 902T1057 1010Q1057 1070 1035 1111T973 1171T889 1198T788 1206H471Z" />
<glyph unicode="S" glyph-name="S" horiz-adv-x="1329" d="M1221 1024H918Q908 1130 838 1185T641 1241Q530 1241 468 1198T406 1075Q406 1048 414 1028T444 990T488 962T555 937T635 914T736 887T852 856Q957 826 1029 793T1161 712T1249 595T1278 438Q1278 338
1244 257T1153 123T1017 34T855 -17T678 -33Q381 -33 215 103T45 487H362Q372 213 692 213Q818 213 890 265T963 408Q963 475 907 512Q856 545 679 596Q714 586 563 629Q382 680 310 715Q157 790 115 925Q98 982 98 1053Q98 1251 251 1370T659 1489Q777 1489 876
1462T1052 1379T1174 1234T1221 1024Z" />
<glyph unicode="T" glyph-name="T" horiz-adv-x="1251" d="M1225 1458V1186H786V0H465V1186H27V1458H1225Z" />
<glyph unicode="U" glyph-name="U" horiz-adv-x="1517" d="M1382 1458V582Q1382 269 1232 120T762 -29Q438 -29 286 121T133 586V1458H453V586Q453 498 467 437T515 328T612 259T766 236Q856 236 916 259T1007 331T1051 439T1063 586V1458H1382Z" />
<glyph unicode="V" glyph-name="V" horiz-adv-x="1290" d="M-16 1458H317L645 434L977 1458H1309L823 0H461L-16 1458Z" />
<glyph unicode="W" glyph-name="W" horiz-adv-x="1933" d="M6 1458H328L561 467L817 1458H1118L1370 455L1612 1458H1927L1534 0H1214L965 995L719 0H393L6 1458Z" />
<glyph unicode="X" glyph-name="X" horiz-adv-x="1366" d="M1333 1458L864 762L1376 0H993L674 506L350 0H-14L500 762L25 1458H397L688 989L981 1458H1333Z" />
<glyph unicode="Y" glyph-name="Y" horiz-adv-x="1366" d="M1384 1458L842 561V0H526V567L-18 1458H346L686 874L1030 1458H1384Z" />
<glyph unicode="Z" glyph-name="Z" horiz-adv-x="1327" d="M1249 1458V1214L459 274H1276V0H41V260L825 1186H96V1458H1249Z" />
<glyph unicode="[" glyph-name="bracketleft" horiz-adv-x="681" d="M674 1468V1245H412V-129H674V-352H143V1468H674Z" />
<glyph unicode="\" glyph-name="backslash" horiz-adv-x="759" d="M231 1493L791 -35H539L-18 1493H231Z" />
<glyph unicode="]" glyph-name="bracketright" horiz-adv-x="681" d="M8 1468H539V-352H8V-129H270V1245H8V1468Z" />
<glyph unicode="^" glyph-name="asciicircum" horiz-adv-x="1228" d="M137 549L498 1421H731L1092 549H848L608 1139L381 549H137Z" />
<glyph unicode="_" glyph-name="underscore" horiz-adv-x="1024" d="M0 -256V-154H1024V-256H0Z" />
<glyph unicode="`" glyph-name="grave" horiz-adv-x="530" d="M227 1479L420 1186H213L-98 1479H227Z" />
<glyph unicode="a" glyph-name="a" horiz-adv-x="1175" d="M1094 0H799Q783 41 778 102Q645 -31 436 -31Q261 -31 160 54T59 289Q59 489 243 565Q327 600 511 624H512H513H514H515H516L517 625H518H519H520Q672 644 725 667T778 752Q778 824 732 858T588 893Q488
893 441 857T379 731H106Q119 908 243 997T596 1087Q667 1087 726 1080T849 1051T956 992T1028 892T1057 743V287Q1057 216 1058 185T1067 98T1094 0ZM776 514Q757 503 738 495T695 481T658 473T613 466T571 459Q470 442 436 426Q358 391 358 301Q358 235 400 198T518
160Q635 160 705 222T776 395V514Z" />
<glyph unicode="b" glyph-name="b" horiz-adv-x="1251" d="M397 1458V928Q521 1081 731 1081Q872 1081 976 1008T1132 813T1184 539Q1184 286 1054 129T715 -29Q495 -29 383 133L385 0H109V1458H397ZM641 858Q524 858 456 771T387 535Q387 381 455 293T641 205Q755
205 823 295T891 537Q891 683 823 770T641 858Z" />
<glyph unicode="c" glyph-name="c" horiz-adv-x="1175" d="M1118 408Q1090 202 957 88T612 -27Q368 -27 221 122T74 520Q74 777 222 932T616 1087Q828 1087 960 980T1112 688H827Q812 775 758 822T618 870Q500 870 434 779T367 526Q367 368 431 282T612 195Q706
195 763 249T838 408H1118Z" />
<glyph unicode="d" glyph-name="d" horiz-adv-x="1251" d="M1141 0H866V135Q761 -29 547 -29Q327 -29 198 123T68 532Q68 783 194 934T530 1085Q629 1085 716 1045T852 926V1458H1141V0ZM862 530Q862 684 796 770T610 856Q492 856 426 770T360 532Q360 379 427
292T610 205Q730 205 796 290T862 530Z" />
<glyph unicode="e" glyph-name="e" horiz-adv-x="1175" d="M1104 328Q1055 157 923 63T608 -31Q364 -31 216 121T68 522Q68 768 218 927T598 1087Q838 1087 979 924T1120 483V455H362Q366 318 429 246T610 174Q690 174 741 211T825 328H1104ZM825 639Q815 743
758 810T598 877Q501 877 438 813T362 639H825Z" />
<glyph unicode="f" glyph-name="f" horiz-adv-x="681" d="M686 1458V1245Q596 1249 590 1249Q511 1249 486 1228T461 1141V1057H668V860H463V0H172V860H0V1057H172V1112Q172 1298 255 1381T535 1464Q558 1464 583 1463T638 1461T686 1458Z" />
<glyph unicode="g" glyph-name="g" horiz-adv-x="1251" d="M1124 1057V111Q1124 -150 995 -271T604 -393Q375 -393 253 -312T109 -63H397Q414 -134 464 -166T610 -199Q681 -199 728 -181T799 -125T833 -40T844 76L846 195Q728 31 522 31T194 172T72 551Q72 792
199 938T535 1085Q644 1085 717 1045T850 915V1057H1124ZM602 860Q487 860 423 779T358 553Q358 413 424 331T604 248T782 331T848 559Q848 701 783 780T602 860Z" />
<glyph unicode="h" glyph-name="h" horiz-adv-x="1214" d="M399 1458V915Q524 1083 733 1083Q1104 1083 1104 692V0H813V623Q813 732 774 789T627 846Q571 846 530 829T464 783T424 714T404 631T399 539V0H113V1458H399Z" />
<glyph unicode="i" glyph-name="i" horiz-adv-x="528" d="M410 1458V1212H119V1458H410ZM410 1057V0H119V1057H410Z" />
<glyph unicode="j" glyph-name="j" horiz-adv-x="569" d="M430 1057V-2Q430 -107 414 -175T358 -292T250 -362T78 -383Q20 -383 -39 -379V-145Q-14 -147 14 -147Q51 -147 74 -140T111 -124T130 -92T138 -51T139 6V1057H430ZM430 1458V1208H139V1458H430Z" />
<glyph unicode="k" glyph-name="k" horiz-adv-x="1175" d="M1137 1057L739 666L1184 0H831L541 469L422 358V0H137V1458H422V678L795 1057H1137Z" />
<glyph unicode="l" glyph-name="l" horiz-adv-x="528" d="M410 1458V0H119V1458H410Z" />
<glyph unicode="m" glyph-name="m" horiz-adv-x="1855" d="M1739 0H1444V631Q1444 670 1441 699T1428 757T1400 805T1351 836T1276 848Q1073 848 1073 594V0H782V643Q782 690 776 723T754 788T705 834T623 850Q412 850 412 573V0H121V1057H397V911Q521 1085 733
1085Q953 1085 1032 911Q1159 1085 1378 1085Q1553 1085 1646 985T1739 711V0Z" />
<glyph unicode="n" glyph-name="n" horiz-adv-x="1214" d="M1106 0H811V616Q811 671 805 708T780 779T724 829T631 846Q509 846 455 770T401 567V0H113V1057H389V909Q520 1085 739 1085Q910 1085 1008 987T1106 707V0Z" />
<glyph unicode="o" glyph-name="o" horiz-adv-x="1251" d="M631 1087Q875 1087 1023 934T1171 528Q1171 273 1023 120T627 -33T230 120T80 528Q80 780 231 933T631 1087ZM623 866Q506 866 439 776T371 528Q371 365 438 276T627 186Q746 186 813 277T881 530Q881
688 813 777T623 866Z" />
<glyph unicode="p" glyph-name="p" horiz-adv-x="1251" d="M385 1057V926Q500 1085 713 1085T1055 931T1184 522Q1184 273 1058 123T725 -27Q513 -27 399 131V-375H111V1057H385ZM641 852Q522 852 456 766T389 526Q389 373 456 287T643 201Q760 201 826 286T893
522Q893 677 826 764T641 852Z" />
<glyph unicode="q" glyph-name="q" horiz-adv-x="1251" d="M1143 1057V-375H854V133Q735 -27 528 -27Q318 -27 193 122T68 522Q68 778 197 931T541 1085Q761 1085 866 926V1057H1143ZM604 854Q491 854 426 765T360 520Q360 369 426 285T610 201Q729 201 795 287T862
530Q862 684 795 769T604 854Z" />
<glyph unicode="r" glyph-name="r" horiz-adv-x="796" d="M797 1075V807Q735 819 684 819Q611 819 557 794T470 723T422 618T406 483V0H115V1057H391V862Q441 966 528 1023T733 1081Q754 1081 797 1075Z" />
<glyph unicode="s" glyph-name="s" horiz-adv-x="1099" d="M1004 750H733Q721 830 673 862T532 895Q456 895 413 868T369 791Q369 732 431 704Q468 688 613 658Q620 656 627 655Q667 647 691 642T755 626T818 606T876 582T929 550T973 511T1008 461T1029 401T1038
328Q1038 161 909 65T555 -31Q453 -31 367 -10T211 54T101 172T59 344H336Q350 168 561 168Q650 168 702 203T754 299Q754 331 740 353T694 389T625 414T527 438Q520 439 516 440Q356 477 342 480Q175 528 118 622Q82 681 82 764Q82 919 202 1003T545 1087Q639
1087 718 1069T861 1011T963 906T1004 750Z" />
<glyph unicode="t" glyph-name="t" horiz-adv-x="720" d="M692 1057V860H477V362Q477 331 477 315T482 279T494 249T515 230T551 217T604 213Q657 213 692 217V-4Q585 -12 516 -12Q419 -12 359 2T259 53T204 151T188 311V860H12V1057H188V1376H477V1057H692Z" />
<glyph unicode="u" glyph-name="u" horiz-adv-x="1214" d="M1102 1057V0H825V150Q701 -31 481 -31Q307 -31 210 65T113 346V1057H406V453Q406 406 408 376T421 312T449 258T502 226T584 213Q813 213 813 512V1057H1102Z" />
<glyph unicode="v" glyph-name="v" horiz-adv-x="1064" d="M768 1057H1057L698 0H373L10 1057H317L543 336L768 1057Z" />
<glyph unicode="w" glyph-name="w" horiz-adv-x="1667" d="M10 1057H319L516 338L694 1057H975L1159 342L1356 1057H1653L1319 0H1020L831 711L649 0H348L10 1057Z" />
<glyph unicode="x" glyph-name="x" horiz-adv-x="1099" d="M1059 1057L711 563L1102 0H770L547 342L326 0H-4L381 557L31 1057H362L551 774L737 1057H1059Z" />
<glyph unicode="y" glyph-name="y" horiz-adv-x="1062" d="M1071 1057L682 4Q621 -160 589 -216Q526 -324 422 -358Q362 -377 279 -377Q225 -377 84 -375V-135H225Q297 -135 335 -98T373 6Q373 23 365 47L-18 1057H295L537 338L770 1057H1071Z" />
<glyph unicode="z" glyph-name="z" horiz-adv-x="1062" d="M981 1057V846L424 229H1018V0H45V221L604 834H88V1057H981Z" />
<glyph unicode="{" glyph-name="braceleft" horiz-adv-x="681" d="M676 -350Q413 -338 309 -235T205 123V197Q205 246 204 274T199 336T187 388T163 427T126 459T73 480T-2 494V625Q120 638 162 695T205 883V993Q205 1248 308 1351T676 1470V1339Q555 1327 514
1265T473 1057V940Q473 764 405 673T168 559Q257 551 318 520T412 437T459 322T473 178V59Q473 -11 479 -54T506 -136T568 -195T676 -221V-350Z" />
<glyph unicode="|" glyph-name="bar" horiz-adv-x="456" d="M104 -438V1610H352V-438H104Z" />
<glyph unicode="}" glyph-name="braceright" horiz-adv-x="681" d="M676 494Q633 489 602 480T548 460T511 428T488 389T475 336T470 274T469 197V123Q469 -131 365 -234T-2 -350V-221Q64 -215 105 -195T167 -137T194 -55T201 59V178Q201 260 215 322T262 436T356
520T506 559Q337 582 269 672T201 940V1057Q201 1202 160 1264T-2 1339V1470Q262 1455 365 1352T469 993V883Q469 753 511 696T676 625V494Z" />
<glyph unicode="~" glyph-name="asciitilde" horiz-adv-x="1228" d="M864 350Q820 350 758 364T652 393T531 435T432 471Q364 492 340 492Q287 492 256 449T215 348H55Q60 403 72 452T109 550T166 634T249 691T362 713Q395 713 435 706T500 690T573 666T639 643Q649
640 695 624T767 600T832 584T895 575Q994 575 1018 713H1178Q1137 350 864 350Z" />
</font>
</defs>
</svg>
